HIERARCHY
ROOT Hips
{
 OFFSET 0.000000 0.000000 0.000000
 CHANNELS 6 Xposition Yposition Zposition Yrotation Xrotation Zrotation
 JOINT Chest
 {
  OFFSET 0.000000 9.303000 0.001900
  CHANNELS 3 Yrotation Xrotation Zrotation
  JOINT Chest2
  {
   OFFSET 0.000000 9.301100 -0.003900
   CHANNELS 3 Yrotation Xrotation Zrotation
   JOINT Chest3
   {
    OFFSET 0.000000 9.262800 0.000000
    CHANNELS 3 Yrotation Xrotation Zrotation
    JOINT Chest4
    {
     OFFSET 0.000000 9.253300 0.000000
     CHANNELS 3 Yrotation Xrotation Zrotation
     JOINT Neck
     {
      OFFSET 0.000000 14.010300 0.000000
      CHANNELS 3 Yrotation Xrotation Zrotation
      JOINT Head
      {
       OFFSET 0.000000 8.657600 -0.008300
       CHANNELS 3 Yrotation Xrotation Zrotation
       End Site
       {
        OFFSET 0.000000 16.540200 -0.004400
       }
      }
     }
     JOINT RightCollar
     {
      OFFSET -2.834100 9.267700 0.000000
      CHANNELS 3 Yrotation Xrotation Zrotation
      JOINT RightShoulder
      {
       OFFSET -13.135200 0.000000 0.000000
       CHANNELS 3 Yrotation Xrotation Zrotation
       JOINT RightElbow
       {
        OFFSET 0.000000 -28.893500 0.000000
        CHANNELS 3 Yrotation Xrotation Zrotation
        JOINT RightWrist
        {
         OFFSET 0.000000 -23.344000 0.000000
         CHANNELS 3 Yrotation Xrotation Zrotation
         End Site
         {
          OFFSET 0.000000 -17.223000 0.000000
         }
        }
       }
      }
     }
     JOINT LeftCollar
     {
      OFFSET 2.834100 9.267700 0.000000
      CHANNELS 3 Yrotation Xrotation Zrotation
      JOINT LeftShoulder
      {
       OFFSET 13.135200 0.000000 0.000000
       CHANNELS 3 Yrotation Xrotation Zrotation
       JOINT LeftElbow
       {
        OFFSET 0.000000 -28.893500 0.000000
        CHANNELS 3 Yrotation Xrotation Zrotation
        JOINT LeftWrist
        {
         OFFSET 0.000000 -23.344000 0.000000
         CHANNELS 3 Yrotation Xrotation Zrotation
         End Site
         {
          OFFSET 0.000000 -17.223000 0.000000
         }
        }
       }
      }
     }
    }
   }
  }
 }
 JOINT RightHip
 {
  OFFSET -7.547200 -0.009500 -0.001000
  CHANNELS 3 Yrotation Xrotation Zrotation
  JOINT RightKnee
  {
   OFFSET 0.000000 -39.762800 0.000900
   CHANNELS 3 Yrotation Xrotation Zrotation
   JOINT RightAnkle
   {
    OFFSET 0.000000 -38.588200 0.001600
    CHANNELS 3 Yrotation Xrotation Zrotation
    JOINT RightToe
    {
     OFFSET 0.000000 -4.693300 10.419700
     CHANNELS 3 Yrotation Xrotation Zrotation
     End Site
     {
      OFFSET 0.000000 -1.379900 5.669300
     }
    }
   }
  }
 }
 JOINT LeftHip
 {
  OFFSET 7.547200 -0.009500 -0.001000
  CHANNELS 3 Yrotation Xrotation Zrotation
  JOINT LeftKnee
  {
   OFFSET 0.000000 -39.762800 0.000900
   CHANNELS 3 Yrotation Xrotation Zrotation
   JOINT LeftAnkle
   {
    OFFSET 0.000000 -38.588200 0.001600
    CHANNELS 3 Yrotation Xrotation Zrotation
    JOINT LeftToe
    {
     OFFSET 0.000000 -4.693300 10.419700
     CHANNELS 3 Yrotation Xrotation Zrotation
     End Site
     {
      OFFSET 0.000000 -1.379900 5.669300
     }
    }
   }
  }
 }
}
MOTION
Frames: 7
Frame Time: 0.008333
6.641593 45.301070 6.279317 161.937101 -26.711757 -0.425432 1.761326 11.097530 2.730072 0.158434 0.775726 0.165551 0.296493 1.383719 0.315623 2.479678 10.371292 2.640446 -0.183378 22.794103 1.050399 -0.416493 -1.262524 1.201224 8.625343 5.474560 -5.488251 4.429429 -26.546253 -11.301720 2.680094 -73.889230 2.524258 -10.956220 -12.477355 -19.995488 -15.150229 -1.921809 -7.943251 -2.575332 -24.639942 9.579169 2.327196 -68.585604 -19.103077 6.109566 -7.430307 9.194376 0.015207 -62.313547 7.297183 -108.424894 83.900549 -112.671382 -11.994370 -8.315595 3.495510 -0.405330 0.082487 -0.400732 -16.282496 -57.374495 30.975479 76.857990 73.409367 76.680882 -8.146399 -3.324646 -5.209438 0.601103 0.214132 0.042171
6.620275 45.312573 6.328206 161.849015 -26.781426 -0.429767 1.802651 11.065658 2.709469 0.177460 0.819849 0.188260 0.311040 1.419977 0.337332 2.472057 10.353884 2.599188 -0.518698 22.723384 1.361628 -0.868964 -1.362949 1.589442 8.698261 5.430141 -5.415818 4.928395 -26.774886 -11.755460 -4.095983 -71.246141 8.795317 -11.051911 -11.133376 -19.356170 -15.094297 -1.850328 -7.909005 -2.321077 -24.460530 9.312463 2.652895 -67.487399 -19.226734 5.963776 -7.018648 9.527125 0.066725 -62.236651 7.192166 -107.450718 83.947376 -111.558432 -11.972276 -8.121226 3.429528 -0.365200 -0.002435 -0.402421 -16.138916 -57.322107 30.947397 76.618952 73.394725 76.460382 -8.146934 -3.281257 -5.183199 0.582311 0.214428 0.082058
6.597775 45.326190 6.374502 161.764930 -26.847500 -0.420617 1.867028 11.090673 2.711110 0.179156 0.823513 0.189067 0.318212 1.438054 0.349257 2.482598 10.361452 2.593424 -0.870344 22.639869 1.647465 -1.312983 -1.449576 1.977813 8.754471 5.357994 -5.401045 5.407093 -26.994315 -12.195415 -9.308155 -68.468849 13.489465 -11.134605 -9.585440 -18.711631 -15.056457 -1.820207 -7.891796 -2.148810 -24.291214 9.144246 3.621693 -66.117302 -20.004982 5.858021 -6.674454 9.961934 0.183375 -62.165691 7.020190 -106.431828 83.985080 -110.367471 -12.031571 -7.902347 3.368685 -0.364480 -0.090532 -0.415288 -15.965539 -57.277549 30.902500 76.388687 73.379748 76.242177 -8.146725 -3.236549 -5.253856 0.545413 0.216958 0.207972
6.576705 45.341610 6.418423 161.667086 -26.912374 -0.405416 1.941313 11.121490 2.718957 0.180769 0.827387 0.190421 0.326889 1.435654 0.341820 2.494418 10.386357 2.609929 -1.209303 22.565956 1.935351 -1.744253 -1.525277 2.359724 8.823972 5.278237 -5.413080 5.849123 -27.186851 -12.598653 -13.087393 -65.713830 16.752987 -11.195104 -7.840001 -18.185491 -14.982654 -1.799965 -7.858630 -2.108581 -24.136149 9.049626 5.171964 -64.452596 -21.343949 5.807500 -6.365632 10.402559 0.350078 -62.098584 6.806638 -105.404665 84.017505 -109.144390 -12.076973 -7.662030 3.310149 -0.372653 -0.185506 -0.433399 -15.771801 -57.235021 30.866508 76.180314 73.364338 76.038694 -8.177217 -3.190848 -5.280729 0.530592 0.200205 0.303974
6.563269 45.359981 6.458379 161.478949 -26.999017 -0.382666 2.100141 11.178011 2.772118 0.182373 0.831566 0.192356 0.313706 1.422169 0.330595 2.527964 10.426717 2.644156 -1.539935 22.492551 2.207353 -2.163820 -1.593887 2.730152 8.909867 5.183693 -5.462431 6.230597 -27.325879 -12.961694 -15.718568 -63.116026 18.876232 -11.222336 -5.926357 -17.886625 -14.849442 -1.817190 -7.763438 -2.227138 -23.976739 8.953229 7.244008 -62.481441 -23.156270 5.791601 -6.036343 10.802382 0.572485 -62.013468 6.611785 -104.438775 84.051138 -107.972326 -11.985362 -7.409221 3.240292 -0.317638 -0.288223 -0.432550 -15.534301 -57.162879 30.889735 76.003358 73.352035 75.857466 -8.154339 -3.122245 -5.284394 0.454127 0.159199 0.363286
6.549653 45.376250 6.500803 161.354222 -27.045822 -0.389321 2.204856 11.200203 2.838219 0.183992 0.836025 0.194801 0.316484 1.429421 0.334819 2.543915 10.447776 2.669323 -1.863348 22.419198 2.466194 -2.573507 -1.660058 3.085599 9.006466 5.074661 -5.532083 6.523453 -27.396919 -13.292655 -17.458407 -60.782386 20.109308 -11.233211 -3.929311 -17.861225 -14.767155 -1.852148 -7.686349 -2.482151 -23.828321 8.946953 9.750035 -60.225424 -25.306504 5.763567 -5.616011 11.149952 0.774778 -61.972669 6.371324 -103.550824 84.082091 -106.865442 -11.782442 -7.138725 3.172294 -0.246388 -0.401596 -0.427831 -15.371286 -57.128403 30.946377 75.852727 73.344047 75.692387 -8.179814 -3.099597 -5.305766 0.425410 0.154400 0.434238
6.532884 45.392575 6.538814 161.239747 -27.090053 -0.371327 2.305924 11.233102 2.878198 0.184804 0.838313 0.196144 0.318055 1.432663 0.352759 2.561776 10.469447 2.700111 -2.180178 22.342226 2.709678 -2.973558 -1.728593 3.423855 9.103395 4.954158 -5.613636 6.707331 -27.405410 -13.593210 -18.504084 -58.771200 20.673056 -11.219249 -1.978224 -18.126983 -14.726087 -1.900916 -7.628421 -2.879427 -23.685650 9.028366 12.518970 -57.740936 -27.587222 5.728701 -5.040895 11.407037 1.052523 -61.940198 6.046951 -102.707974 84.100108 -105.779489 -11.688461 -6.849158 3.115718 -0.224434 -0.511657 -0.432937 -15.178554 -57.102410 30.965446 75.716086 73.340891 75.527708 -8.221545 -3.069686 -5.324836 0.449538 0.134362 0.438194
